<svg width="182" height="35" viewBox="0 0 182 35" fill="none" xmlns="http://www.w3.org/2000/svg">
<path fill-rule="evenodd" clip-rule="evenodd" d="M24.9711 27.6049C24.4529 28.7266 24.7309 31.8664 24.9711 32.9984C22.7125 33.0662 19.5532 30.9751 18.2303 27.1077C14.794 27.4272 12.6014 26.4854 10.4425 23.6715C2.47769 25.5961 -0.578834 14.362 4.45469 11.3796C4.92463 6.98862 8.18813 4.42379 11.3425 4.86055C13.6984 1.71829 17.8137 0.970843 20.2323 3.78059C23.9265 0.178688 27.4249 2.89588 28.2038 4.48747C31.2972 4.79958 32.4269 7.43394 32.5018 9.86763C35.5501 11.9048 35.2036 16.1841 34.1181 17.3292C36.4178 20.6005 33.8263 25.5323 30.8552 25.4253C29.2194 28.8377 26.0871 28.1297 24.9711 27.6049ZM23.8326 19.9383C23.6261 20.2942 23.4672 20.4857 23.0609 20.7065C22.6902 21.1755 22.4443 21.3809 21.9405 21.649C21.4888 22.0983 21.1433 22.3422 20.7715 22.3467C20.5874 22.3489 20.3969 22.2925 20.1838 22.1732C20.1097 22.1318 20.0329 22.0827 19.9528 22.026C19.9245 22.0059 19.9007 21.9914 19.8715 21.9694L19.865 21.9655C19.4377 22.5966 18.7181 22.9908 18.1935 22.513C17.691 21.9001 17.8391 21.2198 18.2203 20.7148L18.2119 20.7065L18.1201 20.628L18.1064 20.6203C17.7444 21.3839 16.9457 21.9763 16.4119 21.3937C16.0252 20.8263 16.1925 20.116 16.5587 19.6091L16.5003 19.5739C16.4967 19.58 16.4932 19.5861 16.4896 19.5921C16.4357 19.683 16.3748 19.7701 16.3087 19.8515C16.0902 20.1206 15.8129 20.33 15.5382 20.4126C15.2628 20.4954 14.9886 20.4508 14.782 20.2092C14.5432 19.961 14.47 19.6528 14.5084 19.3431C14.5468 19.0336 14.6966 18.7227 14.9033 18.4661L14.744 18.3368C14.4001 18.9114 13.776 19.2978 13.2894 18.8411C12.8975 18.3939 13.0187 17.7756 13.3384 17.3158C13.2822 17.2613 13.2274 17.2068 13.1739 17.1525C13.0643 17.0409 12.9604 16.9296 12.8621 16.8186C12.5656 16.4839 12.3199 16.1518 12.1205 15.8243C9.12318 10.9023 16.5751 7.0041 19.2405 10.3389C25.502 6.22969 29.758 14.215 25.7058 17.9575C25.4358 18.497 25.2709 18.6832 24.7874 18.9786C24.5402 19.4317 24.3119 19.6306 23.8323 19.9407L23.8326 19.9383Z" fill="#935DF7"/>
<path d="M16.274 13.6047C16.2686 13.6131 16.2616 13.6205 16.2545 13.6277L16.2294 13.6573C15.8787 14.2692 16.0607 14.9552 16.5751 15.2085C16.8279 15.333 17.161 15.3531 17.5507 15.2085C18.0612 14.8848 19.28 13.5318 20.5262 12.1061C20.6697 12.0518 20.7501 12.0499 20.8935 12.1061L25.6691 17.3292C25.8037 17.5497 25.8003 17.6896 25.7058 17.9575C29.758 14.215 25.502 6.22969 19.2405 10.3389C18.6704 10.8422 18.3334 11.2183 17.8049 11.808L17.7996 11.8139C17.7548 11.8639 17.7087 11.9154 17.6609 11.9686L16.274 13.6047Z" fill="white"/>
<path d="M21.9405 21.649C22.4443 21.3809 22.6902 21.1755 23.0609 20.7065C22.9427 20.6941 22.8789 20.674 22.767 20.628L19.0568 16.8579L18.8731 16.799L18.7262 16.8186L18.5793 16.9365L18.5058 17.1525L18.5425 17.3488L18.9123 17.7281L20.6429 19.5032L21.2609 20.1371C21.3193 20.1958 21.375 20.2507 21.4277 20.3026C21.5816 20.4541 21.71 20.5806 21.8076 20.7065C21.872 20.7895 21.9229 20.8723 21.9589 20.9618C21.9979 21.2017 21.9949 21.3421 21.9654 21.5178C21.9585 21.559 21.9501 21.6022 21.9405 21.649Z" fill="white"/>
<path d="M14.7037 16.8187C14.2898 16.492 13.6924 16.8067 13.3384 17.3158C13.0187 17.7756 12.8975 18.3939 13.2894 18.8411C13.776 19.2978 14.4001 18.9114 14.744 18.3368C14.8903 18.0923 14.9859 17.8137 14.9986 17.5514C15.0123 17.2661 14.9279 17.0001 14.7037 16.8187Z" fill="white"/>
<path fill-rule="evenodd" clip-rule="evenodd" d="M16.423 18.0204C16.194 17.8343 15.9162 17.8182 15.6454 17.912C15.3749 18.0058 15.11 18.2095 14.9033 18.4661C14.6966 18.7227 14.5468 19.0336 14.5084 19.3431C14.47 19.6528 14.5432 19.961 14.782 20.2092C14.9886 20.4508 15.2628 20.4954 15.5382 20.4126C15.8129 20.33 16.0902 20.1206 16.3087 19.8515C16.3748 19.7701 16.4357 19.683 16.4896 19.5921C16.4932 19.5861 16.4967 19.58 16.5003 19.5739C16.6187 19.3693 16.7016 19.1462 16.7291 18.9248C16.7698 18.5972 16.6892 18.2732 16.4241 18.0214L16.423 18.0204Z" fill="white"/>
<path d="M17.918 19.0571C17.8235 18.9954 17.7201 18.9641 17.6123 18.9588C17.2527 18.9411 16.8449 19.213 16.5587 19.6091C16.1925 20.116 16.0252 20.8263 16.4119 21.3937C16.9457 21.9763 17.7444 21.3839 18.1064 20.6203C18.2129 20.3956 18.2816 20.1561 18.2946 19.9273C18.3142 19.5844 18.2087 19.2657 17.918 19.0571Z" fill="white"/>
<path d="M20.1588 20.4913C20.1212 20.3864 20.0668 20.287 19.9935 20.196C19.845 19.9799 19.5964 19.9192 19.3205 19.9715C19.1458 20.0046 18.9602 20.083 18.7823 20.196C18.5748 20.3277 18.3777 20.5063 18.2203 20.7148C17.8391 21.2198 17.691 21.9001 18.1935 22.513C18.7181 22.9908 19.4377 22.5966 19.865 21.9655C19.8929 21.9241 19.9197 21.8818 19.945 21.8386C20.0867 21.597 20.1849 21.3291 20.2156 21.0662C20.2389 20.8672 20.2234 20.671 20.1588 20.4913Z" fill="white"/>
<path d="M24.0895 18.8215L20.6364 15.1693C20.5855 15.1507 20.5633 15.1503 20.5309 15.1497L20.5262 15.1496C20.4912 15.1489 20.4749 15.1517 20.41 15.1719C20.379 15.1867 20.2713 15.2535 20.2323 15.3263C20.1771 15.4104 20.1685 15.4513 20.1588 15.5227C20.1662 15.5892 20.1733 15.6209 20.1956 15.6601L23.7589 19.4106C23.8506 19.6361 23.8494 19.7468 23.8326 19.9383L23.8323 19.9407C24.3119 19.6306 24.5402 19.4317 24.7874 18.9786C24.4596 19.0281 24.3069 18.9934 24.0895 18.8215Z" fill="white"/>
<path d="M21.9405 21.649C22.4443 21.3809 22.6902 21.1755 23.0609 20.7065M21.9405 21.649C21.9501 21.6022 21.9585 21.559 21.9654 21.5178C21.9949 21.3421 21.9979 21.2017 21.9589 20.9618C21.9229 20.8723 21.872 20.7895 21.8076 20.7065C21.71 20.5806 21.5816 20.4541 21.4277 20.3026C21.375 20.2507 21.3193 20.1958 21.2609 20.1371L20.6429 19.5032L18.9123 17.7281L18.5425 17.3488L18.5058 17.1525L18.5793 16.9365L18.7262 16.8186L18.8731 16.799L19.0568 16.8579L22.767 20.628C22.8789 20.674 22.9427 20.6941 23.0609 20.7065M21.9405 21.649C21.4888 22.0983 21.1433 22.3422 20.7715 22.3467C20.5874 22.3489 20.3969 22.2925 20.1838 22.1732C20.1097 22.1318 20.0329 22.0827 19.9528 22.026C19.9245 22.0059 19.9007 21.9914 19.8715 21.9694L19.865 21.9655M23.8389 19.9273C23.8368 19.931 23.8347 19.9346 23.8326 19.9383M23.0609 20.7065C23.4672 20.4857 23.6261 20.2942 23.8326 19.9383M16.5003 19.5739L16.5587 19.6091M16.5003 19.5739C16.6187 19.3693 16.7016 19.1462 16.7291 18.9248M16.5003 19.5739C16.4967 19.58 16.4932 19.5861 16.4896 19.5921M16.5654 19.6132L16.5587 19.6091M14.7037 16.8187C13.9158 16.1969 12.4637 17.8987 13.2894 18.8411M14.7037 16.8187C14.9279 17.0001 15.0123 17.2661 14.9986 17.5514C14.9859 17.8137 14.8903 18.0923 14.744 18.3368M14.7037 16.8187C14.2898 16.492 13.6924 16.8067 13.3384 17.3158M13.2894 18.8411C13.776 19.2978 14.4001 18.9114 14.744 18.3368M13.2894 18.8411C12.8975 18.3939 13.0187 17.7756 13.3384 17.3158M14.744 18.3368L14.9033 18.4661M16.274 13.6047L16.2545 13.6277M16.274 13.6047C16.2686 13.6131 16.2616 13.6205 16.2545 13.6277M16.274 13.6047L17.6609 11.9687C17.7087 11.9154 17.7548 11.8639 17.7996 11.8139L17.8049 11.808C18.3334 11.2183 18.6704 10.8422 19.2405 10.3389M16.2545 13.6277L16.2294 13.6573M16.2545 13.6277C16.2453 13.637 16.2358 13.6462 16.2294 13.6573M19.2405 10.3389C25.502 6.22969 29.758 14.215 25.7058 17.9575M19.2405 10.3389C16.5751 7.0041 9.12318 10.9023 12.1205 15.8243C12.3199 16.1518 12.5656 16.4839 12.8621 16.8186C12.9604 16.9296 13.0643 17.0409 13.1739 17.1525C13.2274 17.2068 13.2822 17.2613 13.3384 17.3158M25.7058 17.9575C25.8003 17.6896 25.8037 17.5497 25.6691 17.3292L20.8935 12.1061C20.7501 12.0499 20.6697 12.0518 20.5262 12.1061C19.28 13.5318 18.0612 14.8848 17.5507 15.2085C17.161 15.3531 16.8279 15.333 16.5751 15.2085C16.0607 14.9552 15.8787 14.2692 16.2294 13.6573M25.7058 17.9575C25.4358 18.497 25.2709 18.6832 24.7874 18.9786M20.41 15.1718C20.4749 15.1517 20.4912 15.1489 20.5262 15.1496L20.5309 15.1497C20.5633 15.1503 20.5855 15.1507 20.6364 15.1693L24.0895 18.8215C24.3069 18.9934 24.4596 19.0281 24.7874 18.9786M20.41 15.1718C20.379 15.1867 20.2713 15.2535 20.2323 15.3263C20.1771 15.4104 20.1685 15.4513 20.1588 15.5227C20.1662 15.5892 20.1733 15.6209 20.1956 15.6601L23.7589 19.4106C23.8506 19.6361 23.8494 19.7468 23.8326 19.9383M20.41 15.1718C20.4125 15.1706 20.416 15.1693 20.416 15.1693M24.7874 18.9786C24.5402 19.4317 24.3119 19.6306 23.8323 19.9407L23.8326 19.9383M14.9033 18.4661C14.6966 18.7227 14.5468 19.0336 14.5084 19.3431C14.47 19.6528 14.5432 19.961 14.782 20.2092C14.9886 20.4508 15.2628 20.4954 15.5382 20.4126C15.8129 20.33 16.0902 20.1206 16.3087 19.8515C16.3748 19.7701 16.4357 19.683 16.4896 19.5921M14.9033 18.4661C15.11 18.2095 15.3749 18.0058 15.6454 17.912C15.9162 17.8182 16.194 17.8343 16.423 18.0204L16.4241 18.0214C16.6892 18.2732 16.7698 18.5972 16.7291 18.9248M16.7291 18.9248C16.7008 19.1528 16.6138 19.3826 16.4896 19.5921M19.865 21.9655C19.8929 21.9241 19.9197 21.8818 19.945 21.8386C20.0867 21.597 20.1849 21.3291 20.2156 21.0662C20.2389 20.8672 20.2234 20.671 20.1588 20.4913C20.1212 20.3864 20.0668 20.287 19.9935 20.196C19.845 19.9799 19.5964 19.9192 19.3205 19.9715C19.1458 20.0046 18.9602 20.083 18.7823 20.196C18.5748 20.3277 18.3777 20.5063 18.2203 20.7148M19.865 21.9655C19.4377 22.5966 18.7181 22.9908 18.1935 22.513C17.691 21.9001 17.8391 21.2198 18.2203 20.7148M18.2203 20.7148L18.2119 20.7065L18.1201 20.628L18.1064 20.6203M18.1064 20.6203C17.7444 21.3839 16.9457 21.9763 16.4119 21.3937C16.0252 20.8263 16.1925 20.116 16.5587 19.6091M18.1064 20.6203C18.2129 20.3956 18.2816 20.1561 18.2946 19.9273C18.3142 19.5844 18.2087 19.2657 17.918 19.0571C17.8235 18.9954 17.7201 18.9641 17.6123 18.9588C17.2527 18.9411 16.8449 19.213 16.5587 19.6091M24.9711 27.6049C24.4529 28.7266 24.7309 31.8664 24.9711 32.9984C22.7125 33.0662 19.5532 30.9751 18.2303 27.1077C14.794 27.4272 12.6014 26.4854 10.4425 23.6715C2.47769 25.5961 -0.578834 14.362 4.45469 11.3796C4.92463 6.98862 8.18813 4.42379 11.3425 4.86055C13.6984 1.71829 17.8137 0.970843 20.2323 3.78059C23.9265 0.178688 27.4249 2.89588 28.2038 4.48747C31.2972 4.79958 32.4269 7.43394 32.5018 9.86763C35.5501 11.9048 35.2036 16.1841 34.1181 17.3292C36.4178 20.6005 33.8263 25.5323 30.8552 25.4253C29.2194 28.8377 26.0871 28.1297 24.9711 27.6049Z" stroke="white"/>
<path d="M169.102 5.5C170.231 5.50002 171.151 5.90584 171.787 6.75L171.901 6.90723C172.454 7.71044 172.704 8.7621 172.704 10.0098C172.704 10.739 172.606 11.6079 172.417 12.6104L172.416 12.6133L171.111 19.3193C170.973 20.0798 170.906 20.7184 170.906 21.2402C170.906 21.834 171.03 22.1901 171.193 22.3926C171.369 22.5929 171.614 22.71 171.99 22.71C172.329 22.7099 172.68 22.5885 173.052 22.2998L173.059 22.2949C173.462 21.9911 173.964 21.4617 174.567 20.6777L174.57 20.6748C174.806 20.3741 175.13 20.1543 175.542 20.1543L175.677 20.1631C175.811 20.1813 175.942 20.2277 176.062 20.3066C176.219 20.4095 176.331 20.5504 176.411 20.7002H176.41C176.579 20.991 176.641 21.3416 176.641 21.709C176.641 22.3042 176.525 22.8402 176.258 23.2812L176.134 23.4639C175.37 24.4779 174.592 25.2474 173.795 25.7441C172.994 26.2431 172.14 26.5 171.241 26.5C169.911 26.5 168.815 26.0655 168.02 25.1572L168.016 25.1533V25.1523C167.235 24.2426 166.868 23.0539 166.868 21.6387C166.868 20.6669 167.048 19.2919 167.392 17.5332V17.5312L168.247 13.2412L168.248 13.2393C168.276 13.0997 168.326 12.8506 168.397 12.4912C168.467 12.1412 168.521 11.816 168.562 11.5156C168.603 11.2076 168.623 10.9089 168.623 10.6191C168.623 10.1165 168.528 9.83927 168.424 9.7002L168.414 9.6875L168.406 9.6748C168.32 9.54341 168.211 9.47763 168.011 9.47754C167.636 9.47754 167.148 9.71724 166.55 10.3965L166.287 10.7148C165.617 11.5783 164.939 13.0683 164.273 15.2402C163.629 17.3902 163.099 20.2042 162.688 23.6904L162.687 23.6895C162.635 24.1732 162.563 24.5941 162.464 24.9453C162.366 25.2917 162.234 25.6007 162.05 25.8369L162.051 25.8379C161.679 26.3166 161.102 26.4999 160.458 26.5C159.895 26.5 159.377 26.3542 159.019 25.9619L159.014 25.9561L159.008 25.9502C158.667 25.552 158.567 24.9168 158.567 24.2178C158.567 23.5411 158.649 22.6768 158.808 21.6338C158.965 20.5822 159.166 19.352 159.409 17.9434V17.9424C160.067 14.1479 160.386 11.7553 160.386 10.7129C160.386 10.1607 160.283 9.8548 160.167 9.70215L160.162 9.69629L160.157 9.68945C160.071 9.56748 159.933 9.47754 159.645 9.47754C159.165 9.47761 158.571 9.78085 157.865 10.6143L157.862 10.6172C157.19 11.396 156.487 12.8523 155.777 15.0596L155.778 15.0605C155.093 17.223 154.512 20.1753 154.043 23.9287C153.942 24.7327 153.784 25.3857 153.52 25.7998L153.519 25.7988C153.2 26.3229 152.612 26.5 151.985 26.5C151.395 26.5 150.846 26.3618 150.481 25.9619L150.472 25.9502C150.117 25.5372 150.009 24.8802 150.009 24.1475C150.009 23.6366 150.054 22.9981 150.141 22.2383L150.142 22.2305C150.242 21.4573 150.4 20.4045 150.614 19.0742C150.984 16.6255 151.275 14.5065 151.488 12.7168C151.615 11.6031 151.678 10.6867 151.678 9.96289C151.678 9.65144 151.623 9.50468 151.586 9.44922C151.572 9.42815 151.562 9.42326 151.558 9.4209C151.551 9.41749 151.527 9.40723 151.472 9.40723C151.276 9.40723 150.939 9.52816 150.436 9.93066L150.434 9.93262C149.976 10.2946 149.439 10.9054 148.823 11.7949C148.578 12.1574 148.225 12.455 147.749 12.4551C147.352 12.4551 147.04 12.2436 146.818 11.9561L146.806 11.9404L146.795 11.9238C146.598 11.6223 146.5 11.2847 146.5 10.9238C146.5 10.6156 146.553 10.3109 146.655 10.0117L146.657 10.0049L146.66 9.99805C146.777 9.68813 146.954 9.3579 147.181 9.00977V9.00879C147.892 7.92012 148.698 7.06269 149.605 6.45508L149.946 6.23535C150.747 5.75415 151.571 5.5 152.413 5.5C153.326 5.50001 154.081 5.82609 154.604 6.5127H154.604C155.128 7.18241 155.353 8.1073 155.353 9.21191C155.353 9.21767 155.352 9.22371 155.352 9.22949C155.805 8.37335 156.29 7.68274 156.812 7.16797C157.899 6.07829 159.133 5.5 160.501 5.5C161.577 5.50012 162.456 5.92779 163.082 6.77734C163.563 7.41495 163.839 8.22716 163.944 9.18457C164.403 8.30613 164.905 7.591 165.456 7.0498C166.497 6.02818 167.719 5.5 169.102 5.5Z" fill="#935DF7" stroke="white"/>
<path d="M143.897 12.4167C144.593 12.4168 145.2 12.5223 145.664 12.7869C145.91 12.927 146.119 13.1234 146.24 13.3894C146.362 13.6568 146.371 13.9428 146.31 14.2195L146.308 14.2312C146.236 14.5292 146.084 14.8329 145.782 15.0076C145.779 15.0094 145.776 15.0116 145.773 15.0134C145.77 15.0154 145.767 15.0184 145.763 15.0203L145.762 15.0193C145.524 15.1578 145.255 15.1941 144.992 15.1736H144.989C144.808 15.1583 144.596 15.1432 144.356 15.1277L144.341 15.1257C143.61 15.0543 142.982 15.142 142.444 15.3699L142.438 15.3728C141.915 15.5862 141.502 15.9142 141.188 16.3611L141.085 16.5291C140.858 16.9329 140.738 17.4119 140.738 17.9812V24.9919C140.738 25.356 140.644 25.7098 140.393 25.9851C140.136 26.2669 139.79 26.3825 139.426 26.3826C139.061 26.3826 138.714 26.267 138.457 25.9851C138.206 25.7098 138.112 25.356 138.112 24.9919V13.948L138.117 13.8123C138.138 13.4969 138.237 13.1957 138.457 12.9548C138.714 12.673 139.061 12.5574 139.426 12.5574C139.79 12.5575 140.136 12.6731 140.393 12.9548C140.575 13.1542 140.673 13.3952 140.714 13.6511C140.915 13.4697 141.128 13.3035 141.355 13.155L141.359 13.1521C142.126 12.662 142.976 12.4167 143.897 12.4167Z" fill="white" stroke="#935DF7"/>
<path d="M131.305 12.5C132.474 12.5 133.513 12.7957 134.403 13.4023L134.73 13.6328C135.47 14.1965 136.048 14.9357 136.467 15.8379C136.944 16.867 137.176 18.0274 137.176 19.3076C137.175 19.6582 137.072 19.9892 136.831 20.2539L136.822 20.2637L136.813 20.2725C136.564 20.5184 136.246 20.6278 135.906 20.6279H127.839C127.921 21.0689 128.055 21.473 128.24 21.8418L128.376 22.083C128.705 22.6301 129.122 23.063 129.629 23.3887C130.196 23.7538 130.857 23.9424 131.627 23.9424C132.075 23.9424 132.527 23.8608 132.986 23.6943C133.471 23.5077 133.831 23.2875 134.086 23.0469L134.095 23.0381L134.189 22.9609C134.381 22.8161 134.601 22.7275 134.842 22.7051L134.965 22.6992C135.235 22.6859 135.491 22.7545 135.711 22.9111L135.807 22.9873L135.821 22.999L135.833 23.0117C136.083 23.2648 136.244 23.5776 136.254 23.9404H136.255C136.255 23.9459 136.254 23.9516 136.255 23.957C136.255 23.9622 136.256 23.9674 136.256 23.9727H136.255C136.269 24.3379 136.126 24.6569 135.86 24.9014C135.337 25.3881 134.683 25.7857 133.912 26.1006L133.904 26.1045C133.128 26.4045 132.368 26.5595 131.627 26.5596C130.389 26.5596 129.27 26.2653 128.286 25.666L128.277 25.6611C127.314 25.0485 126.557 24.207 126.006 23.1494L126.003 23.1436C125.463 22.0793 125.2 20.8748 125.2 19.542C125.2 18.199 125.447 16.9961 125.956 15.9473L125.958 15.9443C126.478 14.8878 127.197 14.0443 128.118 13.4287C129.049 12.8063 130.117 12.5 131.305 12.5ZM131.305 15.1182C130.584 15.1182 129.971 15.3037 129.449 15.6631C128.919 16.0276 128.497 16.5373 128.188 17.2119L128.189 17.2129C128.063 17.4962 127.964 17.8012 127.89 18.127H134.542C134.535 17.9852 134.526 17.8878 134.508 17.7998C134.474 17.6368 134.411 17.4872 134.249 17.1152C133.968 16.4724 133.575 15.9859 133.074 15.6377L133.069 15.6348C132.595 15.297 132.015 15.1182 131.305 15.1182Z" fill="white" stroke="#935DF7"/>
<path d="M112.734 7.07092C113.095 7.07092 113.42 7.2028 113.664 7.47522L113.665 7.47424C113.669 7.47853 113.672 7.48457 113.676 7.48889C113.683 7.49615 113.691 7.50195 113.697 7.5094L113.696 7.51038C113.946 7.77958 114.047 8.12398 114.047 8.48499V14.0016C114.381 13.6906 114.752 13.4179 115.162 13.1852C116.026 12.6867 116.982 12.4401 118.019 12.4401C119.211 12.4401 120.292 12.7555 121.249 13.3912H121.248C122.193 14.0039 122.933 14.8439 123.468 15.8981H123.469C124.024 16.9618 124.296 18.1526 124.296 19.4586C124.295 20.7792 124.016 21.9773 123.447 23.0416C122.895 24.1003 122.131 24.9495 121.157 25.5768L121.152 25.5797L120.886 25.1559L121.151 25.5797C120.167 26.1959 119.054 26.4996 117.827 26.4996C116.625 26.4996 115.527 26.1947 114.545 25.5797L114.542 25.5778C113.582 24.9672 112.819 24.1367 112.253 23.0973L112.249 23.0895C111.695 22.0285 111.415 20.8481 111.4 19.5582V8.48499C111.4 8.12098 111.494 7.76704 111.745 7.49182C112.007 7.20486 112.353 7.07103 112.734 7.07092ZM117.827 15.0817C117.105 15.0817 116.465 15.2675 115.893 15.6354C115.319 16.0048 114.865 16.5198 114.531 17.1949L114.529 17.1979C114.197 17.8546 114.026 18.6051 114.026 19.4586C114.026 20.3291 114.198 21.0863 114.529 21.7418C114.861 22.4002 115.315 22.9182 115.893 23.3053L116.111 23.4342C116.627 23.7163 117.196 23.859 117.827 23.859C118.564 23.859 119.211 23.6721 119.781 23.3053C120.359 22.9181 120.814 22.4004 121.146 21.7418L121.149 21.735C121.492 21.0809 121.67 20.3262 121.67 19.4586C121.67 18.6081 121.493 17.86 121.149 17.2047L121.144 17.1949C120.81 16.5197 120.355 16.0048 119.781 15.6354C119.21 15.2685 118.564 15.0817 117.827 15.0817Z" fill="white" stroke="#935DF7"/>
<path d="M105.609 12.4167C106.542 12.4168 107.384 12.661 108.116 13.1599H108.115C108.854 13.654 109.416 14.3455 109.806 15.2146L109.949 15.5496C110.259 16.3461 110.409 17.2456 110.409 18.239V24.9919C110.409 25.3634 110.295 25.708 110.042 25.9851C109.791 26.2607 109.456 26.3825 109.096 26.3826C108.735 26.3826 108.404 26.2616 108.144 26.0027L108.135 25.9939L108.127 25.9851C107.875 25.708 107.761 25.3633 107.761 24.9919V18.239C107.761 17.2061 107.516 16.4565 107.083 15.9314L107.08 15.9265C106.646 15.3856 106.11 15.1287 105.437 15.1287C104.695 15.1287 104.106 15.3961 103.632 15.9412C103.177 16.4663 102.929 17.1955 102.942 18.1853L102.949 18.6921H102.942V24.9919C102.942 25.3634 102.828 25.708 102.576 25.9851C102.324 26.2608 101.989 26.3826 101.628 26.3826C101.268 26.3825 100.937 26.2614 100.677 26.0027L100.668 25.9939L100.661 25.9851C100.408 25.708 100.294 25.3634 100.294 24.9919V18.239C100.294 17.2061 100.049 16.4565 99.6166 15.9314L99.6127 15.9265C99.1778 15.3856 98.6427 15.1287 97.9701 15.1287C97.2235 15.1287 96.6339 15.392 96.1615 15.9226L96.1576 15.9265C95.6873 16.4418 95.432 17.1339 95.432 18.0515V24.9919C95.432 25.3634 95.3186 25.708 95.0658 25.9851C94.8142 26.2608 94.479 26.3826 94.1185 26.3826C93.7526 26.3825 93.4113 26.267 93.1459 26.0027L93.1293 25.9861L93.1136 25.9675C92.8831 25.6896 92.7846 25.3511 92.7845 24.9919V13.9714C92.7846 13.6123 92.8832 13.2737 93.1136 12.9958L93.1293 12.9783C93.3912 12.6913 93.7376 12.5575 94.1185 12.5574C94.4874 12.5574 94.8197 12.6938 95.0648 12.9783H95.0658C95.0672 12.9798 95.0683 12.9817 95.0697 12.9832C95.0734 12.9875 95.0777 12.9914 95.0814 12.9958H95.0804C95.1862 13.1156 95.2657 13.2475 95.3226 13.3884C95.4246 13.3075 95.53 13.2297 95.639 13.157C96.3813 12.662 97.2203 12.4168 98.141 12.4167C99.0721 12.4167 99.9123 12.6602 100.643 13.157C101.077 13.4465 101.449 13.8058 101.762 14.2273C102.104 13.801 102.505 13.4393 102.968 13.1492C103.752 12.6581 104.638 12.4167 105.609 12.4167Z" fill="white" stroke="#935DF7"/>
<path d="M74.3389 12.4167C75.272 12.4168 76.114 12.661 76.8457 13.1599H76.8447C77.5838 13.654 78.1461 14.3455 78.5361 15.2146L78.6787 15.5496C78.9893 16.3461 79.1387 17.2456 79.1387 18.239V24.9919C79.1386 25.3634 79.0253 25.708 78.7725 25.9851C78.5209 26.2607 78.1864 26.3825 77.8262 26.3826C77.4653 26.3826 77.134 26.2616 76.874 26.0027L76.8652 25.9939L76.8574 25.9851C76.6046 25.708 76.4912 25.3633 76.4912 24.9919V18.239C76.4912 17.2061 76.2459 16.4565 75.8135 15.9314L75.8105 15.9265C75.3757 15.3856 74.8396 15.1287 74.167 15.1287C73.4248 15.1287 72.836 15.3961 72.3623 15.9412C71.9066 16.4663 71.6588 17.1955 71.6719 18.1853L71.6787 18.6921H71.6719V24.9919C71.6718 25.3634 71.5585 25.708 71.3057 25.9851C71.0541 26.2608 70.7188 26.3826 70.3584 26.3826C69.9977 26.3825 69.667 26.2614 69.4072 26.0027L69.3984 25.9939L69.3906 25.9851C69.1378 25.708 69.0244 25.3634 69.0244 24.9919V18.239C69.0244 17.2061 68.779 16.4565 68.3467 15.9314L68.3428 15.9265C67.9079 15.3856 67.3728 15.1287 66.7002 15.1287C65.9536 15.1287 65.364 15.392 64.8916 15.9226L64.8877 15.9265C64.4174 16.4418 64.1621 17.1339 64.1621 18.0515V24.9919C64.1621 25.3634 64.0488 25.708 63.7959 25.9851C63.5443 26.2608 63.2091 26.3826 62.8486 26.3826C62.4827 26.3825 62.1414 26.267 61.876 26.0027L61.8594 25.9861L61.8438 25.9675C61.6132 25.6896 61.5147 25.3511 61.5146 24.9919V13.9714C61.5147 13.6123 61.6133 13.2737 61.8438 12.9958L61.8594 12.9783C62.1213 12.6913 62.4677 12.5575 62.8486 12.5574C63.2175 12.5574 63.5498 12.6938 63.7949 12.9783H63.7959C63.7973 12.9798 63.7984 12.9817 63.7998 12.9832C63.8035 12.9875 63.8078 12.9914 63.8115 12.9958H63.8105C63.9163 13.1156 63.9958 13.2475 64.0527 13.3884C64.1547 13.3075 64.2601 13.2297 64.3691 13.157C65.1114 12.662 65.9504 12.4168 66.8711 12.4167C67.8022 12.4167 68.6424 12.6602 69.373 13.157C69.807 13.4465 70.179 13.8058 70.4922 14.2273C70.8341 13.801 71.2349 13.4393 71.6982 13.1492C72.4825 12.6581 73.3678 12.4167 74.3389 12.4167Z" fill="white" stroke="#935DF7"/>
<path d="M42.835 7.07092C43.957 7.07092 44.975 7.33256 45.873 7.8678H45.8721C46.7641 8.38365 47.4606 9.11419 47.958 10.0475L48.1396 10.402C48.5347 11.2438 48.7265 12.187 48.7266 13.2213C48.7266 14.3604 48.4742 15.3932 47.9561 16.3053L47.9551 16.3043C47.4552 17.2096 46.7573 17.9242 45.8662 18.4381C45.7911 18.4814 45.7135 18.5196 45.6367 18.5592L48.875 24.2281C49.135 24.6841 49.2351 25.1898 49.002 25.6676C49.0008 25.6702 48.9992 25.6728 48.998 25.6754C48.9963 25.679 48.996 25.6836 48.9941 25.6871L48.9922 25.6862C48.8855 25.9104 48.7213 26.0936 48.499 26.2155C48.2774 26.3368 48.0282 26.3824 47.7773 26.3824C47.525 26.3824 47.2671 26.3298 47.0459 26.1783L47.0205 26.1588C46.8528 26.0275 46.7213 25.8528 46.6162 25.6627L42.9189 19.2047C42.8911 19.205 42.8629 19.2076 42.835 19.2076H40.1689V24.9684C40.1689 25.3398 40.0555 25.6844 39.8027 25.9615C39.5467 26.2421 39.2104 26.3824 38.834 26.3824C38.4578 26.3823 38.1221 26.242 37.8662 25.9615C37.6134 25.6844 37.5 25.3398 37.5 24.9684V8.48499C37.5001 8.11361 37.6134 7.76888 37.8662 7.49182C38.1221 7.21143 38.4578 7.07103 38.834 7.07092H42.835ZM40.1689 16.4498H42.835C43.4887 16.4498 44.0441 16.3095 44.5156 16.0446C45.0093 15.7596 45.3939 15.3773 45.6768 14.8922C45.9557 14.4137 46.1006 13.8613 46.1006 13.2213C46.1006 12.5287 45.9531 11.9441 45.6738 11.4518L45.6709 11.4469C45.3856 10.9303 45.0005 10.5368 44.5117 10.2555L44.5068 10.2526C44.0369 9.97526 43.4846 9.82971 42.835 9.82971H40.1689V16.4498Z" fill="white" stroke="#935DF7"/>
<path d="M176.255 14.4566C177.205 14.4566 178.009 14.7765 178.615 15.44H178.614C179.218 16.0864 179.495 16.9457 179.495 17.9576C179.495 19.1579 179.093 20.209 178.294 21.0845C177.609 21.8359 176.539 22.4164 175.145 22.8589C175.19 22.8975 175.237 22.9317 175.285 22.9615C175.48 23.0829 175.732 23.1548 176.063 23.1548C176.561 23.1548 176.921 23.0305 177.184 22.8199L177.191 22.814C177.518 22.562 177.926 22.1086 178.416 21.4195L178.419 21.4146C178.648 21.101 178.974 20.858 179.401 20.858L179.537 20.8668C179.671 20.885 179.802 20.9315 179.921 21.0103C180.069 21.1074 180.177 21.239 180.255 21.3795H180.256C180.436 21.6748 180.5 22.0352 180.5 22.4127C180.5 23.0484 180.363 23.6252 180.066 24.1226L180.065 24.1216C179.623 24.8651 179.035 25.4522 178.301 25.8716L178.3 25.8707C177.568 26.2972 176.709 26.4995 175.743 26.4996C174.255 26.4996 173.041 26.0095 172.173 24.9869L172.17 24.9839C171.32 23.9636 170.92 22.6189 170.92 21.0054C170.92 19.8614 171.14 18.791 171.584 17.8004C172.028 16.7955 172.648 15.9817 173.452 15.3775L173.456 15.3746C174.284 14.7638 175.222 14.4567 176.255 14.4566ZM175.892 17.7545C175.623 17.7545 175.309 17.9113 174.982 18.5045C174.753 18.9382 174.603 19.4511 174.542 20.0513C175.007 19.8705 175.378 19.6496 175.664 19.3922C176.059 19.0357 176.226 18.6566 176.226 18.2388C176.226 18.0311 176.173 17.9291 176.122 17.8726L176.107 17.856L176.093 17.8384C176.055 17.7875 176.009 17.7545 175.892 17.7545Z" fill="#935DF7" stroke="white"/>
<path d="M54.6055 12.5C55.7739 12.5 56.8134 12.7957 57.7031 13.4023L58.0303 13.6328C58.7697 14.1965 59.3482 14.9357 59.7666 15.8379C60.2438 16.867 60.4756 18.0274 60.4756 19.3076C60.4755 19.6582 60.3724 19.9892 60.1309 20.2539L60.1221 20.2637L60.1133 20.2725C59.8639 20.5184 59.5457 20.6278 59.2061 20.6279H51.1387C51.2213 21.0689 51.3547 21.473 51.54 21.8418L51.6758 22.083C52.0052 22.6301 52.4224 23.063 52.9287 23.3887C53.4964 23.7538 54.1572 23.9424 54.9268 23.9424C55.3749 23.9424 55.8273 23.8608 56.2861 23.6943C56.7709 23.5077 57.1315 23.2875 57.3857 23.0469L57.3955 23.0381L57.4893 22.9609C57.681 22.8161 57.9009 22.7275 58.1416 22.7051L58.2646 22.6992C58.535 22.6859 58.7908 22.7545 59.0107 22.9111L59.1074 22.9873L59.1211 22.999L59.1328 23.0117C59.383 23.2648 59.5445 23.5776 59.5537 23.9404H59.5547C59.555 23.9459 59.5544 23.9516 59.5547 23.957C59.5548 23.9622 59.5557 23.9674 59.5557 23.9727H59.5547C59.5694 24.3379 59.4263 24.6569 59.1602 24.9014C58.6366 25.3881 57.9832 25.7857 57.2119 26.1006L57.2041 26.1045C56.4285 26.4045 55.668 26.5595 54.9268 26.5596C53.6891 26.5596 52.5704 26.2653 51.5859 25.666L51.5771 25.6611C50.6144 25.0485 49.8572 24.207 49.3057 23.1494L49.3027 23.1436C48.7633 22.0793 48.5 20.8748 48.5 19.542C48.5 18.199 48.7466 16.9961 49.2559 15.9473L49.2578 15.9443C49.7782 14.8878 50.4974 14.0443 51.418 13.4287C52.3488 12.8063 53.4171 12.5 54.6055 12.5ZM54.6055 15.1182C53.884 15.1182 53.2713 15.3037 52.749 15.6631C52.2195 16.0276 51.7969 16.5373 51.4883 17.2119L51.4893 17.2129C51.3627 17.4962 51.264 17.8012 51.1904 18.127H57.8418C57.8354 17.9852 57.8259 17.8878 57.8076 17.7998C57.7737 17.6368 57.7111 17.4872 57.5488 17.1152C57.2682 16.4724 56.8751 15.9859 56.374 15.6377L56.3691 15.6348C55.8949 15.297 55.3153 15.1182 54.6055 15.1182Z" fill="white" stroke="#935DF7"/>
<path d="M86.1055 12.5C87.2739 12.5 88.3134 12.7957 89.2031 13.4023L89.5303 13.6328C90.2697 14.1965 90.8482 14.9357 91.2666 15.8379C91.7438 16.867 91.9756 18.0274 91.9756 19.3076C91.9755 19.6582 91.8724 19.9892 91.6309 20.2539L91.6221 20.2637L91.6133 20.2725C91.3639 20.5184 91.0457 20.6278 90.7061 20.6279H82.6387C82.7213 21.0689 82.8547 21.473 83.04 21.8418L83.1758 22.083C83.5052 22.6301 83.9224 23.063 84.4287 23.3887C84.9964 23.7538 85.6572 23.9424 86.4268 23.9424C86.8749 23.9424 87.3273 23.8608 87.7861 23.6943C88.2709 23.5077 88.6315 23.2875 88.8857 23.0469L88.8955 23.0381L88.9893 22.9609C89.181 22.8161 89.4009 22.7275 89.6416 22.7051L89.7646 22.6992C90.035 22.6859 90.2908 22.7545 90.5107 22.9111L90.6074 22.9873L90.6211 22.999L90.6328 23.0117C90.883 23.2648 91.0445 23.5776 91.0537 23.9404H91.0547C91.055 23.9459 91.0544 23.9516 91.0547 23.957C91.0548 23.9622 91.0557 23.9674 91.0557 23.9727H91.0547C91.0694 24.3379 90.9263 24.6569 90.6602 24.9014C90.1366 25.3881 89.4832 25.7857 88.7119 26.1006L88.7041 26.1045C87.9285 26.4045 87.168 26.5595 86.4268 26.5596C85.1891 26.5596 84.0704 26.2653 83.0859 25.666L83.0771 25.6611C82.1144 25.0485 81.3572 24.207 80.8057 23.1494L80.8027 23.1436C80.2633 22.0793 80 20.8748 80 19.542C80 18.199 80.2466 16.9961 80.7559 15.9473L80.7578 15.9443C81.2782 14.8878 81.9974 14.0443 82.918 13.4287C83.8488 12.8063 84.9171 12.5 86.1055 12.5ZM86.1055 15.1182C85.384 15.1182 84.7713 15.3037 84.249 15.6631C83.7195 16.0276 83.2969 16.5373 82.9883 17.2119L82.9893 17.2129C82.8627 17.4962 82.764 17.8012 82.6904 18.127H89.3418C89.3354 17.9852 89.3259 17.8878 89.3076 17.7998C89.2737 17.6368 89.2111 17.4872 89.0488 17.1152C88.7682 16.4724 88.3751 15.9859 87.874 15.6377L87.8691 15.6348C87.3949 15.297 86.8153 15.1182 86.1055 15.1182Z" fill="white" stroke="#935DF7"/>
</svg>
